<?xml version="1.0" standalone="no"?>
<!DOCTYPE svg PUBLIC "-//W3C//DTD SVG 20010904//EN"
 "http://www.w3.org/TR/2001/REC-SVG-20010904/DTD/svg10.dtd">
<svg version="1.0" xmlns="http://www.w3.org/2000/svg"
 width="500.000000pt" height="500.000000pt" viewBox="0 0 500.000000 500.000000"
 preserveAspectRatio="xMidYMid meet">
<metadata>
Created by potrace 1.11, written by Peter Selinger 2001-2013
</metadata>
<g transform="translate(0.000000,500.000000) scale(0.100000,-0.100000)"
fill="#000000" stroke="none">
<path d="M0 2500 l0 -2500 2500 0 2500 0 0 2500 0 2500 -2500 0 -2500 0 0
-2500z m3345 1160 l830 -830 -75 -75 -75 -75 78 -78 77 -77 -75 -75 -75 -75
85 -85 85 -85 -833 -833 -832 -832 -835 835 -835 835 73 73 72 72 -85 85 -85
85 80 80 80 80 -75 75 -75 75 827 827 c456 456 830 828 833 828 3 0 378 -373
835 -830z"/>
<path d="M1707 3642 l-807 -807 62 -63 63 -62 742 742 743 743 745 -745 745
-745 65 65 65 65 -808 808 -807 807 -808 -808z"/>
<path d="M1783 3408 l-728 -728 70 -70 70 -70 667 667 668 668 660 -660 660
-660 60 60 60 60 -730 730 -730 730 -727 -727z"/>
<path d="M1877 3172 c-356 -356 -647 -652 -647 -658 0 -12 1272 -1284 1285
-1284 6 0 301 291 658 648 l647 647 -648 648 -647 647 -648 -648z m596 -272
c32 -12 61 -28 63 -35 4 -10 -45 -124 -60 -142 -1 -2 -27 7 -57 18 -114 44
-247 7 -303 -84 -114 -184 69 -391 285 -323 24 7 52 17 61 21 13 5 24 -8 52
-64 l36 -71 -51 -25 c-28 -15 -85 -31 -129 -37 -188 -28 -360 62 -443 231 -28
58 -32 75 -32 151 0 75 4 93 32 152 51 109 148 190 265 223 74 21 206 14 281
-15z m522 16 c60 -16 125 -46 125 -58 0 -16 -60 -128 -69 -128 -5 0 -28 9 -52
20 -25 11 -66 20 -96 20 -44 0 -55 -4 -72 -26 -12 -15 -21 -32 -21 -39 0 -22
44 -53 141 -98 156 -75 213 -156 189 -271 -40 -195 -328 -246 -549 -97 -12 8
-7 22 28 80 23 39 44 71 46 71 2 0 26 -14 52 -30 106 -67 220 -65 237 6 10 40
-13 65 -100 108 -141 69 -190 117 -209 203 -20 94 63 210 174 244 41 12 122
10 176 -5z"/>
<path d="M960 2585 l-64 -65 69 -70 69 -70 68 67 68 67 -67 68 c-37 38 -70 68
-73 68 -3 0 -35 -29 -70 -65z"/>
<path d="M3935 2590 l-59 -60 64 -65 65 -65 60 60 60 60 -65 65 -65 65 -60
-60z"/>
<path d="M3180 1835 l-665 -665 -655 655 c-360 360 -659 655 -664 655 -10 0
-126 -118 -126 -128 0 -4 324 -331 720 -727 l720 -720 732 732 733 733 -65 65
-65 65 -665 -665z"/>
<path d="M3253 1598 l-743 -743 -735 735 -734 734 -33 -29 c-40 -37 -88 -88
-88 -95 0 -3 361 -366 803 -808 l802 -802 807 807 808 808 -67 67 c-37 38 -70
68 -73 68 -3 0 -339 -334 -747 -742z"/>
</g>
</svg>
