<svg height="500pt" preserveAspectRatio="xMidYMid meet" viewBox="0 0 500 500" width="500pt" xmlns="http://www.w3.org/2000/svg"><g transform="matrix(.1 0 0 -.1 0 500)"><path d="m0 2500v-2500h2500 2500v2500 2500h-2500-2500zm4100 255-75-75 78-78 77-77-75-75-75-75 85-85 85-85-833-833-832-832-835 835-835 835 72 72 73 73-85 85-85 85 80 80 80 80-75 75-75 75 828 831 827 830 835-833 835-833z"/><path d="m1707 3642-807-807 62-62 63-61 743 741 742 742 745-745 745-745 65 65 65 65-808 808-807 807z"/><path d="m1780 3405-725-725 65-65c35-36 69-65 75-65 5 0 308 298 672 662l663 663 660-660 660-660 60 60 60 60-727 727c-401 401-730 728-733 728s-331-326-730-725z"/><path d="m2085 3373c-242-243-534-537-650-653l-210-210 642-640c352-352 645-640 650-640 4 0 299 291 656 648l647 647-647 646-648 645zm375-467c24-9 55-23 67-32l23-15-36-70c-28-54-40-69-53-63-45 19-108 34-141 34-170 0-287-161-221-306 48-106 191-162 306-118 22 8 48 18 57 21 13 4 25-12 52-66l36-71-22-14c-88-55-277-69-378-27-154 64-260 210-260 360 0 162 119 317 287 372 70 23 212 21 283-5zm535 10c59-16 125-46 125-58 0-4-14-36-32-72l-31-64-51 24c-81 38-161 30-186-17-18-33 11-64 97-104 112-53 167-90 196-133 34-50 41-91 27-158-40-191-316-244-537-103-13 7-23 17-23 21 0 10 71 127 80 133 5 3 30-8 57-25 99-61 205-63 231-5 22 47 1 70-108 125-163 82-217 158-190 269 16 69 54 115 124 151 67 34 136 39 221 16z"/><path d="m960 2585-65-66 55-54c87-87 83-87 156-14l64 63-67 68c-37 38-70 68-73 68s-35-29-70-65z"/><path d="m3935 2590-59-60 64-65 65-65 60 60 60 60-65 65-65 65z"/><path d="m3180 1835-665-665-657 657-658 658-67-67-66-66 723-723 722-722 732 732 731 731-65 65-65 65z"/><path d="m3255 1600c-407-407-742-740-745-740s-335 330-737 732l-733 733-62-63-63-62 805-805 805-805 807 807 808 808-67 67c-37 38-70 68-73 68s-338-333-745-740z"/></g></svg>